<?xml version="1.0" encoding="iso-8859-1"?>
<!-- Generator: Adobe Illustrator 16.0.0, SVG Export Plug-In . SVG Version: 6.00 Build 0)  -->
<!DOCTYPE svg PUBLIC "-//W3C//DTD SVG 1.1//EN" "http://www.w3.org/Graphics/SVG/1.1/DTD/svg11.dtd">
<svg version="1.1" id="Capa_1" xmlns="http://www.w3.org/2000/svg" xmlns:xlink="http://www.w3.org/1999/xlink" x="0px" y="0px"
	 width="375.76px" height="375.76px" viewBox="0 0 375.76 375.76" style="enable-background:new 0 0 375.76 375.76;"
	 xml:space="preserve">
<g>
	<g>
		<path d="M375.76,33.26l-10.532,2.412c0,0-34.95,23.728-74.651,50.772c-15.414,22.683-31.891,46.86-45.67,66.962L375.76,33.26z"/>
		<path d="M178.505,163.856c-47.088,32.065-105.824,23.594-107.5,23.354c-17.562-4.747-38.202,0.479-53.306,15.32
			c-21.608,21.275-23.722,54.275-4.735,73.555c18.999,19.29,52.027,17.689,73.624-3.574c0.058-0.07,0.117-0.14,0.187-0.222
			c-0.023,0.198-0.059,0.351-0.059,0.351l106.852-98.274l-0.835-20.756C184.693,159.215,179.521,162.934,178.505,163.856z
			 M24.303,264.922c-12.833-13.043-10.79-35.953,4.554-51.064c15.349-15.121,38.289-16.791,51.117-3.748
			c12.845,13.043,10.795,35.942-4.555,51.064C60.075,276.26,37.142,277.953,24.303,264.922z"/>
		<path d="M180.537,304.099c-0.502-4.169-6.673-60.534,25.345-106.005c5.967-6.387,128.495-187.558,128.495-187.558l2.02-10.089
			L199.261,149.05l1.162,28.738L97.956,286.361c-0.718,0.643-1.448,1.249-2.137,1.926c-21.597,21.276-23.728,54.252-4.735,73.543
			c18.987,19.291,52.01,17.691,73.618-3.585C180.116,343.088,185.546,321.965,180.537,304.099z M210.704,161.825
			c-3.234-3.287-3.199-8.612,0.094-11.852c3.293-3.241,8.618-3.206,11.853,0.099c3.258,3.299,3.211,8.606-0.094,11.858
			C219.264,165.17,213.962,165.124,210.704,161.825z M102.417,350.679c-12.839-13.044-10.796-35.942,4.554-51.063
			c15.355-15.123,38.289-16.793,51.123-3.761c12.839,13.044,10.795,35.942-4.56,51.075
			C138.195,362.041,115.262,363.711,102.417,350.679z"/>
	</g>
</g>
<g>
</g>
<g>
</g>
<g>
</g>
<g>
</g>
<g>
</g>
<g>
</g>
<g>
</g>
<g>
</g>
<g>
</g>
<g>
</g>
<g>
</g>
<g>
</g>
<g>
</g>
<g>
</g>
<g>
</g>
</svg>
